# xmcd
#
# Track frame offsets:
#	150
#	10670
#	21402
#	30797
#	41267
#	52822
#	63885
#	75575
#	86287
#	96250
#	107462
#	118332
#	132187
#	143695
#	155595
#	165985
#	176362
#	188117
#	200760
#	211847
#	222045
#	231002
#	245297
#	256347
#	267922
#
# Disc length: 3721 seconds
#
# Revision: 1
# Processed by: cddbd v1.4PL0 Copyright (c) Steve Scherf et al.
# Submitted via: audiograbber 1.81.02
#
DISCID=380e8719
DTITLE=Patsy Cline - The Patsy Cline Collection Vol. 1
DYEAR=2001
DGENRE=Country
TTITLE0=I Love You Honey
TTITLE1=Stop Look and Listen
TTITLE2=Come On In
TTITLE3=He Will Do For You
TTITLE4=Walkin' After Midnight
TTITLE5=A Stranger In My Arms
TTITLE6=I've Loved And Lost Again
TTITLE7=Honkey Tonk Merry Go Round
TTITLE8=Turn The Cards Slowly
TTITLE9=Hidin' Out
TTITLE10=I Cried All The Way To The Altar
TTITLE11=A Church, A Courtroom And Then Goodbye
TTITLE12=The Heart You Break May Be Your Own
TTITLE13=Today, Tomorrow and Forever
TTITLE14=Pick Me up On Your Way Down
TTITLE15=Too Many Secrets
TTITLE16=A Poor Man's Roses On A Rich Man's Gold 
TTITLE17=Fingerprints
TTITLE18=Don't Ever Leave Me
TTITLE19=Three Cigarettes In An Ashtray
TTITLE20=Try Again
TTITLE21=Then You'll Know
TTITLE22=I Can't Forget
TTITLE23=In Care Of The Blues
TTITLE24=Dear God I Go To Church On Sunday
EXTD=
EXTT0=
EXTT1=
EXTT2=
EXTT3=
EXTT4=
EXTT5=
EXTT6=
EXTT7=
EXTT8=
EXTT9=
EXTT10=
EXTT11=
EXTT12=
EXTT13=
EXTT14=
EXTT15=
EXTT16=
EXTT17=
EXTT18=
EXTT19=
EXTT20=
EXTT21=
EXTT22=
EXTT23=
EXTT24=
PLAYORDER=
